<svg width="35" height="35" viewBox="0 0 44 44" fill="none" xmlns="http://www.w3.org/2000/svg">
<path d="M30.718 42V34.638C30.7949 33.7309 30.6627 32.819 30.3303 31.9629C29.9978 31.1068 29.4727 30.3262 28.7897 29.6729C35.2308 29.0071 42 26.7433 42 16.3565C41.9995 13.7005 40.8978 11.1464 38.9231 9.22277C39.8582 6.89908 39.7921 4.33063 38.7385 2.05097C38.7385 2.05097 36.318 1.38515 30.718 4.86643C26.0164 3.68474 21.0605 3.68474 16.359 4.86643C10.759 1.38515 8.33846 2.05097 8.33846 2.05097C7.28487 4.33063 7.21876 6.89908 8.15385 9.22277C6.16436 11.1607 5.06159 13.7379 5.07692 16.4136C5.07692 26.7243 11.8462 28.988 18.2872 29.7299C17.6123 30.3767 17.0918 31.148 16.7596 31.9936C16.4274 32.8392 16.2909 33.7402 16.359 34.638V42M16.359 36.293C6.10256 39.1465 6.10256 31.5372 2 30.586L16.359 36.293Z" stroke="#1EB854" stroke-width="3" stroke-linecap="round" stroke-linejoin="round"/>
</svg>
