<svg width="72" height="64" viewBox="0 0 72 64" fill="none" xmlns="http://www.w3.org/2000/svg">
<path d="M60.3562 21.425C59.1187 20.975 57.825 20.525 56.475 20.1313C56.8125 18.7813 57.0937 17.4313 57.3187 16.1375C58.5 8.71252 57.2062 3.48127 53.6062 1.45627C52.5375 0.837524 51.3562 0.556274 50.0062 0.556274C46.0687 0.556274 41.0625 3.48127 36 8.37502C30.9375 3.48127 25.9312 0.556274 21.9937 0.556274C20.6437 0.556274 19.4625 0.837524 18.3937 1.45627C14.7937 3.53752 13.5 8.76877 14.6812 16.1375C14.9062 17.4313 15.1875 18.7813 15.525 20.1313C14.175 20.525 12.8812 20.9188 11.6437 21.425C4.61248 24.125 0.787476 27.8375 0.787476 32C0.787476 36.1625 4.66873 39.875 11.6437 42.575C12.8812 43.025 14.175 43.475 15.525 43.8688C15.1875 45.2188 14.9062 46.5688 14.6812 47.8625C13.5 55.2875 14.7937 60.5188 18.3937 62.5438C19.4625 63.1625 20.6437 63.4438 21.9937 63.4438C25.9875 63.4438 30.9937 60.5188 36 55.625C41.0625 60.5188 46.0687 63.4438 50.0062 63.4438C51.3562 63.4438 52.5375 63.1625 53.6062 62.5438C57.2062 60.4625 58.5 55.2313 57.3187 47.8625C57.0937 46.5688 56.8125 45.2188 56.475 43.8688C57.825 43.475 59.1187 43.0813 60.3562 42.575C67.3875 39.875 71.2125 36.1625 71.2125 32C71.2125 27.8375 67.3875 24.125 60.3562 21.425ZM52.0312 4.26877C54.3375 5.61877 55.125 9.78127 54.1687 15.6875C54 16.8688 53.7187 18.1063 53.3812 19.4C50.4562 18.725 47.3625 18.275 44.1 17.9938C42.1875 15.2938 40.2187 12.875 38.25 10.6813C42.4125 6.57502 46.6312 3.76252 50.0625 3.76252C50.7937 3.76252 51.4687 3.93127 52.0312 4.26877V4.26877ZM45.7312 37.625C44.7187 39.425 43.5375 41.225 42.3 43.025C40.2187 43.1938 38.1375 43.25 36 43.25C33.8062 43.25 31.725 43.1938 29.7 43.025C28.4625 41.225 27.3375 39.425 26.325 37.625C25.2562 35.7688 24.2437 33.8563 23.3437 32C24.2437 30.1438 25.2562 28.2313 26.325 26.375C27.3375 24.575 28.5187 22.775 29.7562 20.975C31.8375 20.8063 33.9187 20.75 36.0562 20.75C38.25 20.75 40.3312 20.8063 42.3562 20.975C43.5937 22.775 44.7187 24.575 45.7312 26.375C46.8 28.2313 47.8125 30.1438 48.7125 32C47.7562 33.8563 46.8 35.7125 45.7312 37.625ZM50.4 35.7688C51.2437 37.7375 51.9187 39.65 52.5375 41.5625C50.625 42.0125 48.6 42.35 46.4625 42.6313C47.1375 41.5625 47.8687 40.4375 48.4875 39.2563C49.1625 38.075 49.7812 36.8938 50.4 35.7688ZM36 51.0125C34.65 49.55 33.3562 47.975 32.1187 46.3438C33.4125 46.4 34.7062 46.4563 36 46.4563C37.2937 46.4563 38.5875 46.4 39.8812 46.3438C38.6437 47.975 37.35 49.55 36 51.0125ZM25.5375 42.575C23.4 42.2938 21.375 41.9563 19.4625 41.5063C20.0812 39.65 20.7562 37.6813 21.6 35.7125C22.2187 36.8375 22.8375 38.0188 23.5125 39.1438C24.1875 40.3813 24.8625 41.45 25.5375 42.575V42.575ZM21.6 28.2313C20.7562 26.2625 20.0812 24.35 19.4625 22.4375C21.375 21.9875 23.4 21.65 25.5375 21.3688C24.8625 22.4375 24.1312 23.5625 23.5125 24.7438C22.8375 25.925 22.2187 27.1063 21.6 28.2313V28.2313ZM36 12.9875C37.35 14.45 38.6437 16.025 39.8812 17.6563C38.5875 17.6 37.2937 17.5438 36 17.5438C34.7062 17.5438 33.4125 17.6 32.1187 17.6563C33.3562 16.025 34.65 14.45 36 12.9875V12.9875ZM48.4875 24.8L46.4625 21.425C48.6 21.7063 50.625 22.0438 52.5375 22.4938C51.9187 24.35 51.2437 26.3188 50.4 28.2875C49.7812 27.1063 49.1625 25.925 48.4875 24.8V24.8ZM17.8312 15.6875C16.875 9.78127 17.6625 5.61877 19.9687 4.26877C20.5312 3.93127 21.2062 3.76252 21.9375 3.76252C25.3125 3.76252 29.5312 6.51877 33.75 10.6813C31.7812 12.8188 29.8125 15.2938 27.9 17.9938C24.6375 18.275 21.5437 18.7813 18.6187 19.4C18.2812 18.1063 18.0562 16.8688 17.8312 15.6875ZM3.93748 32C3.93748 29.3563 7.14373 26.5438 12.7687 24.4625C13.8937 24.0125 15.1312 23.6188 16.3687 23.2813C17.2687 26.0938 18.3937 29.075 19.7437 32.0563C18.3937 35.0375 17.2125 37.9625 16.3687 40.775C8.60623 38.525 3.93748 35.15 3.93748 32V32ZM19.9687 59.7313C17.6625 58.3813 16.875 54.2188 17.8312 48.3125C18 47.1313 18.2812 45.8938 18.6187 44.6C21.5437 45.275 24.6375 45.725 27.9 46.0063C29.8125 48.7063 31.7812 51.125 33.75 53.3188C29.5875 57.425 25.3687 60.2375 21.9375 60.2375C21.2062 60.2375 20.5312 60.0688 19.9687 59.7313ZM54.1687 48.3125C55.125 54.2188 54.3375 58.3813 52.0312 59.7313C51.4687 60.0688 50.7937 60.2375 50.0625 60.2375C46.6875 60.2375 42.4687 57.4813 38.25 53.3188C40.2187 51.1813 42.1875 48.7063 44.1 46.0063C47.3625 45.725 50.4562 45.2188 53.3812 44.6C53.7187 45.8938 53.9437 47.1313 54.1687 48.3125V48.3125ZM59.2312 39.5375C58.1062 39.9875 56.8687 40.3813 55.6312 40.7188C54.7312 37.9063 53.6062 34.925 52.2562 31.9438C53.6062 28.9625 54.7875 26.0375 55.6312 23.225C63.3937 25.475 68.0625 28.85 68.0625 32C68.0625 34.6438 64.8 37.4563 59.2312 39.5375V39.5375Z" fill="#61DAFB"/>
</svg>
