<svg width="60" height="60" viewBox="0 0 60 60" fill="none" xmlns="http://www.w3.org/2000/svg">
<path d="M43.08 36C43.32 34.02 43.5 32.04 43.5 30C43.5 27.96 43.32 25.98 43.08 24H53.22C53.7 25.92 54 27.93 54 30C54 32.07 53.7 34.08 53.22 36H43.08ZM37.77 52.68C39.57 49.35 40.95 45.75 41.91 42H50.76C47.8535 47.0048 43.2423 50.796 37.77 52.68V52.68ZM37.02 36H22.98C22.68 34.02 22.5 32.04 22.5 30C22.5 27.96 22.68 25.95 22.98 24H37.02C37.29 25.95 37.5 27.96 37.5 30C37.5 32.04 37.29 34.02 37.02 36ZM30 53.88C27.51 50.28 25.5 46.29 24.27 42H35.73C34.5 46.29 32.49 50.28 30 53.88ZM18 18H9.24C12.1166 12.9816 16.7244 9.18446 22.2 7.32C20.4 10.65 19.05 14.25 18 18ZM9.24 42H18C19.05 45.75 20.4 49.35 22.2 52.68C16.7359 50.795 12.1345 47.0032 9.24 42V42ZM6.78 36C6.3 34.08 6 32.07 6 30C6 27.93 6.3 25.92 6.78 24H16.92C16.68 25.98 16.5 27.96 16.5 30C16.5 32.04 16.68 34.02 16.92 36H6.78ZM30 6.09C32.49 9.69 34.5 13.71 35.73 18H24.27C25.5 13.71 27.51 9.69 30 6.09V6.09ZM50.76 18H41.91C40.9711 14.2844 39.5807 10.6977 37.77 7.32C43.29 9.21 47.88 13.02 50.76 18ZM30 0C13.41 0 0 13.5 0 30C0 37.9565 3.1607 45.5871 8.7868 51.2132C11.5726 53.999 14.8797 56.2088 18.5195 57.7164C22.1593 59.224 26.0603 60 30 60C37.9565 60 45.5871 56.8393 51.2132 51.2132C56.8393 45.5871 60 37.9565 60 30C60 26.0603 59.224 22.1593 57.7164 18.5195C56.2087 14.8797 53.999 11.5726 51.2132 8.7868C48.4274 6.00104 45.1203 3.79126 41.4805 2.28361C37.8407 0.775973 33.9397 0 30 0V0Z" fill="black"/>
</svg>
